<svg width="64" height="64" viewBox="0 0 64 64" fill="none" xmlns="http://www.w3.org/2000/svg">
  <defs>
    <linearGradient id="hub-bg" x1="10" y1="8" x2="54" y2="56" gradientUnits="userSpaceOnUse">
      <stop stop-color="#312E81"/>
      <stop offset="0.55" stop-color="#5B21B6"/>
      <stop offset="1" stop-color="#0F766E"/>
    </linearGradient>
    <linearGradient id="hub-cap" x1="17" y1="18" x2="47" y2="30" gradientUnits="userSpaceOnUse">
      <stop stop-color="#FDE68A"/>
      <stop offset="1" stop-color="#F59E0B"/>
    </linearGradient>
    <linearGradient id="hub-book" x1="17" y1="30" x2="47" y2="46" gradientUnits="userSpaceOnUse">
      <stop stop-color="#F8FAFC"/>
      <stop offset="1" stop-color="#E0E7FF"/>
    </linearGradient>
    <linearGradient id="hub-page" x1="32" y1="28" x2="32" y2="45" gradientUnits="userSpaceOnUse">
      <stop stop-color="#C4B5FD"/>
      <stop offset="1" stop-color="#8B5CF6"/>
    </linearGradient>
  </defs>
  <rect x="6" y="6" width="52" height="52" rx="18" fill="url(#hub-bg)"/>
  <rect x="6.75" y="6.75" width="50.5" height="50.5" rx="17.25" stroke="white" stroke-opacity="0.14" stroke-width="1.5"/>
  <path d="M16 25.2L32 16L48 25.2L32 31.3L16 25.2Z" fill="url(#hub-cap)"/>
  <path d="M22.8 28.7V34.4C22.8 36.4 26.8 38.3 32 38.3C37.2 38.3 41.2 36.4 41.2 34.4V28.7L32 32.1L22.8 28.7Z" fill="#FBBF24"/>
  <path d="M45.4 26.7V35.8" stroke="#FDE68A" stroke-width="2.2" stroke-linecap="round"/>
  <circle cx="45.4" cy="37.9" r="2.3" fill="#FDE68A"/>
  <path d="M18 33.1C22.1 30.7 26.8 29.5 32 29.5C37.2 29.5 41.9 30.7 46 33.1V44.8C41.9 42.4 37.2 41.2 32 41.2C26.8 41.2 22.1 42.4 18 44.8V33.1Z" fill="url(#hub-book)"/>
  <path d="M31.2 30.2V41.7C28.1 41.8 25 42.3 22 43.4V33.9C24.8 32.4 27.9 31.2 31.2 30.2Z" fill="#F8FAFC"/>
  <path d="M32.8 30.2V41.7C35.9 41.8 39 42.3 42 43.4V33.9C39.2 32.4 36.1 31.2 32.8 30.2Z" fill="#EEF2FF"/>
  <path d="M32 30.4V44.1" stroke="url(#hub-page)" stroke-width="1.8" stroke-linecap="round"/>
  <path d="M27.1 35.6H30.2" stroke="#A78BFA" stroke-width="1.4" stroke-linecap="round"/>
  <path d="M33.8 35.6H36.9" stroke="#A78BFA" stroke-width="1.4" stroke-linecap="round"/>
  <path d="M49.5 15.2L50.6 18.1L53.5 19.2L50.6 20.3L49.5 23.2L48.4 20.3L45.5 19.2L48.4 18.1L49.5 15.2Z" fill="#F8FAFC"/>
</svg>
